<svg width="280" height="280" viewBox="0 0 280 280" fill="none" xmlns="http://www.w3.org/2000/svg">
<circle cx="132" cy="143" r="102" fill="#FCB8FF"/>
<path d="M245.038 104.971C250.08 110.426 255.302 116.261 258.894 122.801C260.241 125.254 259.842 128.008 257.658 129.881C254.153 132.886 248.602 133.251 244.252 133.589C236.437 134.197 228.554 134.031 220.735 133.589C203.332 132.607 185.329 130.632 168.421 126.247C158.513 123.678 141.425 119.868 135.318 110.365C130.89 103.475 142.472 104.331 146.065 104.671C163.13 106.286 180.546 111.408 195.982 118.793C211.501 126.218 226.792 136.263 237.923 149.547C244.51 157.407 249.235 169.158 239.496 176.667C227.472 185.938 206.369 184.365 192.313 183.559C169.345 182.242 146.113 177.764 124.458 169.999C120.152 168.455 97.4457 159.854 104.462 151.644C111.091 143.887 129.437 148.226 137.79 149.771C158.598 153.622 202.095 172.605 185.198 201.015C175.29 217.673 152.257 223.597 134.756 227.536C113.504 232.319 90.436 234.155 69.0367 229.334C57.3128 226.692 47.1025 220.028 52.0357 206.634C55.087 198.349 61.3958 191.119 67.2392 184.683C74.771 176.387 82.9971 168.698 91.2054 161.084C102.335 150.761 114.817 141.148 124.87 129.769C125.637 128.901 129.151 125.211 125.544 126.697C120.665 128.707 116.138 131.721 111.652 134.451C94.9917 144.587 77.8775 154.349 59.6749 161.459C51.9274 164.484 30.4328 173.453 23.5759 164.006C15.9726 153.53 35.5174 135.683 41.7752 129.918C59.3045 113.77 80.2107 100.082 100.567 87.8149C107.905 83.3932 115.193 78.895 122.511 74.4422C126.106 72.2551 130.99 68.3372 135.206 67.4C138.93 66.5721 129.259 72.1868 126.181 74.4422C117.598 80.7314 109.005 87.0539 100.043 92.7969C78.6136 106.529 53.903 119.64 28.6312 124.112C21.8545 125.312 12.8561 127.165 6.64977 123.026C1.94454 119.888 2.35641 114.358 4.70251 109.841C13.5001 92.9 30.8256 79.0896 46.868 69.5352C67.7923 57.0731 91.1666 48.2318 115.396 45.1121C118.146 44.7581 127.474 43.4658 129.327 46.7603C131.696 50.9735 118.875 56.8093 116.894 57.7731C93.101 69.3517 66.8792 76.297 40.8016 80.0236" stroke="#71E76E" stroke-width="1.5" stroke-linecap="round"/>
<path d="M165.953 226.928V163.059L102.084 158.404C101.825 167.627 101.463 194.244 102.084 226.928C121.529 238.306 152.766 231.669 165.953 226.928Z" fill="#71E76E"/>
<path d="M194.727 206.505C194.21 195.644 185.333 169.097 179.989 156.599L164.549 159.662L177.768 204.128L144.822 228.484L151.803 240.896C161.026 235.638 195.245 217.365 194.727 206.505Z" fill="#FFD7A3"/>
<path d="M194.727 206.505C194.21 195.644 185.333 169.097 179.989 156.599L164.549 159.662L177.768 204.128L144.822 228.484L151.803 240.896C161.026 235.638 195.245 217.365 194.727 206.505Z" stroke="#252525" stroke-width="1.5"/>
<path d="M69.6223 211.914C70.1397 202.605 80.2924 172.715 85.6364 160.217L101.286 168.092L87.8263 206.308L123.648 222.276L113.304 237.015C104.082 231.757 69.1049 221.223 69.6223 211.914Z" fill="#FFD7A3"/>
<path d="M69.6223 211.914C70.1397 202.605 80.2924 172.715 85.6364 160.217L101.286 168.092L87.8263 206.308L123.648 222.276L113.304 237.015C104.082 231.757 69.1049 221.223 69.6223 211.914Z" stroke="#252525" stroke-width="1.5"/>
<path d="M96.0099 142.449C99.7526 145.259 164.689 147.444 168.437 145.571C169.252 145.163 178.851 129.131 173.645 126.645C168.439 124.16 176.327 113.371 173.648 111.726C168.866 108.791 179.176 89.8767 175.547 89.2926C171.917 88.7085 177.959 75.7832 173.645 74.7707C169.332 73.7582 173.004 62.0154 167.306 60.6097C161.608 59.204 159.888 50.7639 154.628 50.4941C149.368 50.2244 148.693 49.6844 144.512 46.3132C140.331 42.9419 131.564 48.4705 131.564 48.4705C131.564 48.4705 129.271 48.4705 122.284 47.5435C115.296 46.6165 114.07 55.1461 106.354 56.4325C98.6386 57.719 104.039 69.7099 98.3103 72.2075C92.5812 74.7051 101.273 90.2278 96.009 92.7345C90.7452 95.2413 104.534 103.45 95.6395 107.45C86.7445 111.449 100.745 125.495 93.4676 126.645C86.1904 127.796 95.2119 141.85 96.0099 142.449Z" fill="#252525"/>
<path d="M131.564 48.4705C131.564 48.4705 140.331 42.9419 144.512 46.3132C148.693 49.6844 149.368 50.2244 154.628 50.4941C159.888 50.7639 161.608 59.204 167.306 60.6097C173.004 62.0154 169.332 73.7582 173.645 74.7707C177.959 75.7832 171.917 88.7085 175.547 89.2926C179.176 89.8767 168.866 108.791 173.648 111.726C176.327 113.371 168.439 124.16 173.645 126.645C178.851 129.131 169.252 145.163 168.437 145.571C164.689 147.444 99.7526 145.259 96.0099 142.449C95.2119 141.85 86.1904 127.796 93.4676 126.645C100.745 125.495 86.7445 111.449 95.6395 107.45C104.534 103.45 90.7452 95.2413 96.009 92.7345C101.273 90.2278 92.5812 74.7051 98.3103 72.2075C104.039 69.7099 98.6386 57.719 106.354 56.4325C114.07 55.1461 115.296 46.6165 122.284 47.5435C129.271 48.4705 131.564 48.4705 131.564 48.4705ZM131.564 48.4705C133.192 49.7321 136.638 53.0908 137.396 56.4325" stroke="#8D46F6" stroke-width="1.5"/>
<path d="M101.564 110.994C100.339 112.199 98.536 113.124 98.2007 114.944C97.9275 116.427 98.9249 117.431 99.9673 118.343C100.646 118.936 101.416 119.473 102.137 120.017C102.795 120.515 103.654 121.005 103.705 121.932C103.786 123.384 102.431 124.411 101.465 125.239C100.752 125.851 100.155 126.288 100.045 127.274C99.9972 127.704 100.3 128.07 100.547 128.391C101.055 129.051 101.387 129.796 101.663 130.581C102.296 132.381 100.209 132.887 99.0204 133.57C98.3872 133.934 97.5552 134.244 97.1974 134.934C96.6832 135.925 97.7952 137.277 98.2573 138.085" stroke="#8D46F6" stroke-width="1.5" stroke-linecap="round"/>
<path d="M164.305 115.356C164.076 117.188 163.811 118.318 162.742 119.647C162.108 120.434 160.536 121.846 160.662 123.159C160.83 124.906 167.103 126.557 165.988 128.992C165.273 130.553 161.522 131.473 163.223 133.135C164.825 134.702 164.907 137.734 163.006 138.895" stroke="#8D46F6" stroke-width="1.5" stroke-linecap="round"/>
<path d="M109.53 108.696C108.315 109.438 106.095 112.026 106.23 113.615C106.348 114.996 109.492 116.736 110.566 117.404C112.622 118.683 115.571 119.086 116.897 121.265C117.938 122.976 114.072 125.324 113.137 126.329C112.546 126.964 111.548 127.78 111.602 128.697C111.66 129.694 113.242 129.582 113.597 130.41C114.744 133.082 111.954 135.415 109.875 136.895" stroke="#8D46F6" stroke-width="1.5" stroke-linecap="round"/>
<path d="M152.49 110.993C150.031 112.699 145.9 116.996 149.124 119.818C150.554 121.069 152.379 121.741 153.644 123.208C154.802 124.551 153.349 125.627 152.274 126.406C151.276 127.129 149.358 128.124 148.956 129.388C148.61 130.474 150.714 131.514 151.36 132.032C154.573 134.611 151.392 137.619 148.811 138.909" stroke="#8D46F6" stroke-width="1.5" stroke-linecap="round"/>
<path d="M133.134 130.224C148.146 130.547 155.872 133.405 164.987 139.045C174.103 144.685 190.387 164.297 204.47 175.118C200.472 183.183 184.89 187.015 170.179 188.91C169.003 189.061 164.351 174.996 163.224 175.118C153.868 176.137 126.018 176.576 103.141 173.523C101.356 173.285 99.0329 187.993 97.2696 187.708C86.7171 183.902 72.3309 177.01 64.0099 172.04C64.0099 172.04 93.8067 145.289 101.612 139.669C109.416 134.05 118.113 129.901 133.134 130.224Z" fill="#71E76E"/>
<path d="M114.927 169.413C118.296 166.194 122.344 163.254 123.765 158.637C124.007 157.85 124.583 153.457 122.428 154.295C121.44 154.679 120.92 156.085 120.625 156.989C119.902 159.204 119.881 161.664 119.83 163.966C119.777 166.42 119.793 168.887 120.024 171.331C120.114 172.276 120.055 174.461 120.887 175.188C122.136 176.281 125.173 171.4 125.625 170.711C126.026 170.101 127.149 168.224 126.73 168.821C126.152 169.648 125.616 170.721 125.374 171.7C125.032 173.078 126.467 172.735 127.263 172.378C128.776 171.7 130.128 170.517 130.994 169.103C131.025 169.052 132.022 167.029 131.362 167.319C130.81 167.562 130.126 168.49 130.219 169.122C130.31 169.742 131.275 169.39 131.576 169.258C132.873 168.683 133.973 167.554 134.677 166.341C135.302 165.262 135.67 164.015 135.684 162.765C135.698 161.551 135.138 163.278 135.084 163.492C134.633 165.273 134.703 167.018 135.316 168.754C135.943 170.531 137.118 172.142 137.429 174.025C137.612 175.138 137.457 176.774 136.266 177.32C135.336 177.746 134.518 177.039 134.454 176.109C134.338 174.446 135.444 170.066 137.874 170.44C138.674 170.563 139.156 171.444 139.909 171.709C141.202 172.164 142.539 171.188 143.456 170.382C144.346 169.599 145.515 168.416 145.956 167.281C146.213 166.621 144.878 168.618 145.181 169.258C146.019 171.027 150.18 169.48 151.335 169.093C153.172 168.477 154.635 167.662 156.093 166.447" stroke="white" stroke-width="1.5" stroke-linecap="round"/>
<path d="M64.3197 171.979C72.2072 176.486 88.6925 185.337 97.6161 187.641L102.593 171.979" stroke="#252525" stroke-width="1.5" stroke-linecap="round"/>
<path d="M204.517 175.163C199.806 184.046 178.873 188.189 169.983 188.94L164.999 177.973" stroke="#252525" stroke-width="1.5" stroke-linecap="round"/>
<rect x="129.524" y="115.357" width="10.3779" height="23.3503" rx="5.18896" transform="rotate(5.82352 129.524 115.357)" fill="#FFD7A3" stroke="#252525" stroke-width="1.5" stroke-linecap="round" stroke-linejoin="round"/>
<ellipse cx="9.136" cy="10.6624" rx="9.136" ry="10.6624" transform="matrix(-0.805365 0.592779 0.592779 0.805365 106.082 75.3174)" fill="#FFD7A3" stroke="#252525" stroke-width="1.5" stroke-linecap="round" stroke-linejoin="round"/>
<path d="M104.961 99.9278C104.961 101.319 104.643 102.542 104.166 103.39C103.676 104.262 103.116 104.594 102.667 104.594C102.218 104.594 101.658 104.262 101.168 103.39C100.691 102.542 100.373 101.319 100.373 99.9278C100.373 98.5365 100.691 97.3139 101.168 96.4655C101.658 95.5935 102.218 95.2617 102.667 95.2617C103.116 95.2617 103.676 95.5935 104.166 96.4655C104.643 97.3139 104.961 98.5365 104.961 99.9278Z" fill="#FBEB3B" stroke="#252525" stroke-width="1.5"/>
<path d="M99.7202 84.7563C101.033 83.7344 104.162 82.6245 106.176 86.3605" stroke="#252525" stroke-width="1.5" stroke-linecap="round" stroke-linejoin="round"/>
<rect x="109.498" y="50.7559" width="58.3295" height="69.6191" rx="29.1647" transform="rotate(5.82352 109.498 50.7559)" fill="#FFD7A3" stroke="#252525" stroke-width="1.5" stroke-linecap="round" stroke-linejoin="round"/>
<circle cx="150.558" cy="103.637" r="6.2934" fill="#FD7B55" fill-opacity="0.3"/>
<mask id="mask0_2502_37820" style="mask-type:alpha" maskUnits="userSpaceOnUse" x="104" y="52" width="62" height="72">
<rect x="109.497" y="50.7559" width="58.3295" height="69.6191" rx="29.1647" transform="rotate(5.82352 109.497 50.7559)" fill="#FFD7A3" stroke="#252525" stroke-width="1.5" stroke-linecap="round" stroke-linejoin="round"/>
</mask>
<g mask="url(#mask0_2502_37820)">
<circle cx="110.636" cy="99.5766" r="6.2934" fill="#FD7B55" fill-opacity="0.3"/>
</g>
<path d="M136.771 91.8615C138.889 90.0519 143.972 87.7804 148.192 92.2258M151.627 91.8615L148.944 93.1031C148.697 92.7853 148.446 92.4934 148.192 92.2258M148.192 92.2258L149.753 90.6556" stroke="#252525" stroke-width="1.5" stroke-linecap="round"/>
<path d="M123.722 90.5314C120.092 85.8579 115.604 86.7854 112.914 88.3356M109.79 87.2223L111.549 89.2899C111.92 88.9731 112.382 88.6422 112.914 88.3356M112.914 88.3356L111.665 86.9104" stroke="#252525" stroke-width="1.5" stroke-linecap="round"/>
<path d="M149.025 83.9112C149.54 81.2255 136.736 79.0983 136.669 82.4911C136.603 85.8839 148.509 86.5968 149.025 83.9112Z" fill="#252525"/>
<path d="M111.865 80.1234C112.059 77.3941 124.872 77.8905 124.252 81.2269C123.633 84.5633 111.671 82.8527 111.865 80.1234Z" fill="#252525"/>
<path d="M125.023 98.1997C128.236 93.8664 131.135 99.5756 131.135 99.5756" stroke="#252525" stroke-width="1.5" stroke-linecap="round" stroke-linejoin="round"/>
<path d="M124.462 108.132C128.706 112.454 136.441 111.411 138.373 105.641" stroke="#252525" stroke-width="1.5" stroke-linecap="round" stroke-linejoin="round"/>
<rect x="109.498" y="50.7559" width="58.3295" height="69.6191" rx="29.1647" transform="rotate(5.82352 109.498 50.7559)" stroke="#252525" stroke-width="1.5" stroke-linecap="round" stroke-linejoin="round"/>
<rect x="109.496" y="50.7559" width="58.3295" height="69.6191" rx="29.1647" transform="rotate(5.82352 109.496 50.7559)" stroke="#252525" stroke-width="1.5" stroke-linecap="round" stroke-linejoin="round"/>
<path d="M137.263 48.483C159.116 49.7318 176.618 71.3028 165.067 90.0343C162.968 89.2471 162.58 90.0343 160.087 88.7389C157.593 87.4435 158.008 84.3747 155.515 83.2317C153.021 82.0887 148.506 83.1944 146.994 80.0104C145.482 76.8265 145.482 76.2697 139.236 74.9942C132.99 73.7188 133.226 67.8644 133.226 67.8644C129.803 67.351 128.394 73.568 123.51 71.0741C118.626 68.5803 118.418 75.5423 113.119 74.9942C107.82 74.4461 107.569 77.8277 106.376 81.2888C101.068 65.0546 115.409 47.2342 137.263 48.483Z" fill="#252525"/>
<path d="M132.731 67.5986C132.641 65.0412 133.148 60.286 141.372 58.3388C147.952 56.781 147.273 51.3784 146.769 48.4209" stroke="#8D46F6" stroke-width="1.5" stroke-linecap="round"/>
<path d="M135.505 56.2646C134.136 56.2646 133.127 56.3258 131.826 56.6975C130.703 57.0183 129.799 58.8498 128.905 59.6069C128.002 60.3707 126.105 61.0255 124.901 61.0255C123.907 61.0255 123.398 60.1599 122.425 60.1599C121.099 60.1599 119.517 60.2293 118.289 60.8091C116.86 61.4838 116.533 62.7694 115.548 63.7907C114.291 65.0939 111.71 65.5893 109.969 65.8345C108.996 65.9716 107.259 66.1646 106.531 66.8925C105.723 67.7007 105.962 69.104 106.074 70.1145" stroke="#8D46F6" stroke-width="1.5" stroke-linecap="round"/>
<path d="M130.096 53.0191C129.431 52.886 129.234 51.9104 128.473 51.6125C126.947 51.0154 125.929 51.2553 124.373 51.5043C121.654 51.9394 120.995 55.3318 118.41 56.0367C116.148 56.6538 113.856 56.1988 111.606 56.7461C110.256 57.0744 109.075 57.4423 108.672 58.9101C108.186 60.6819 108.416 61.7426 106.724 62.7573" stroke="#8D46F6" stroke-width="1.5" stroke-linecap="round"/>
<path d="M139.619 66.0029C137.071 69.6129 142.965 70.5632 145.341 70.8119C147.168 71.003 148.951 70.834 150.764 70.9682C152.801 71.1191 153.798 71.9657 155.308 73.2525C156.75 74.4811 157.734 75.6842 158.446 77.4243C158.847 78.4052 159.373 79.0216 160.285 79.5282C161.24 80.0588 162.96 79.7438 164.024 79.9009C164.694 79.9997 165.69 80.2678 166.188 80.7665C166.707 81.2847 166.881 81.8409 167.535 82.2332" stroke="#8D46F6" stroke-width="1.5" stroke-linecap="round"/>
<path d="M146.542 60.1602C148.731 64.0994 153.162 63.0534 156.738 63.9472C158.762 64.4534 159.669 65.143 161.042 66.6403C162.261 67.9711 162.556 68.668 162.556 70.4514C162.556 71.0752 162.571 72.0261 163.35 72.0624C165.076 72.1427 166.869 72.5334 168.483 73.1444C169.872 73.6699 170.935 74.839 171.309 76.2823C171.596 77.3903 171.708 79.0641 170.563 79.6365" stroke="#8D46F6" stroke-width="1.5" stroke-linecap="round"/>
<ellipse cx="168.103" cy="95.7481" rx="9.136" ry="10.6624" transform="rotate(48.0015 168.103 95.7481)" fill="#FFD7A3"/>
<path d="M166.055 92.21C166.912 93.3712 168.237 96.6497 166.676 100.473" stroke="#252525" stroke-width="1.5" stroke-linecap="round"/>
<path d="M160.179 102.882C163.555 106.632 169.839 106.478 174.216 102.538C178.592 98.5974 179.403 92.3635 176.027 88.6138C172.65 84.864 166.366 85.0184 161.99 88.9585" stroke="#252525" stroke-width="1.5" stroke-linecap="round" stroke-linejoin="round"/>
<path d="M162.878 94.5055C164.395 92.5062 168.883 89.0971 174.695 91.4551" stroke="#252525" stroke-width="1.5" stroke-linecap="round" stroke-linejoin="round"/>
<path d="M165.414 107.644C165.414 109.035 165.096 110.257 164.619 111.106C164.129 111.978 163.569 112.31 163.12 112.31C162.671 112.31 162.111 111.978 161.621 111.106C161.144 110.257 160.826 109.035 160.826 107.644C160.826 106.252 161.144 105.03 161.621 104.181C162.111 103.309 162.671 102.978 163.12 102.978C163.569 102.978 164.129 103.309 164.619 104.181C165.096 105.03 165.414 106.252 165.414 107.644Z" fill="#FBEB3B" stroke="#252525" stroke-width="1.5"/>
<path d="M180.052 242.64L180.052 242.639L187.896 195.312L187.896 195.312C188.091 194.139 187.186 193.07 185.996 193.07H81.7108C80.5211 193.07 79.6161 194.139 79.8109 195.312L79.811 195.312L87.6546 242.638C87.8098 243.57 88.6122 244.25 89.5546 244.25H178.152C179.096 244.25 179.899 243.569 180.052 242.64Z" fill="url(#paint0_linear_2502_37820)" stroke="#252525" stroke-width="1.5"/>
<path d="M52.9317 80.0345L52.7416 79.2552C51.462 74.0098 46.7347 70.1182 41.0974 70.1182C35.6267 70.1182 31.0126 73.7844 29.5751 78.7965L29.3807 79.4746L28.692 79.322C27.9927 79.1671 27.2667 79.0822 26.5238 79.0822C21.0319 79.0822 16.5791 83.5334 16.5791 89.026C16.5791 89.3265 16.5945 89.6267 16.6217 89.9258L16.6765 90.5284L16.0991 90.7094C14.3412 91.2602 13.0675 92.9028 13.0675 94.843C13.0675 97.2372 15.0085 99.177 17.402 99.177C18.0834 99.177 19.6762 99.1316 21.3974 99.0826C21.5196 99.0791 21.6424 99.0756 21.7655 99.0721C23.6098 99.0197 25.5319 98.9667 26.5238 98.9667C28.6058 98.9667 35.0448 98.9015 41.5068 98.836L41.5455 98.8356C48.0142 98.7701 54.4971 98.7045 56.6145 98.7045C61.9615 98.7045 66.2969 94.3708 66.297 89.0231L52.9317 80.0345ZM52.9317 80.0345L53.6965 79.7925M52.9317 80.0345L53.6965 79.7925M53.6965 79.7925C54.6163 79.5014 55.5962 79.3443 56.6145 79.3443M53.6965 79.7925L56.6145 79.3443M56.6145 79.3443C61.9614 79.3443 66.2955 83.678 66.297 89.0229L56.6145 79.3443Z" fill="white" stroke="#252525" stroke-width="1.5"/>
<path d="M84.666 44.6911L78.9251 45.8565L78.0644 51.646L72.7275 49.2121L68.6273 53.3916L65.7386 48.2893L59.956 49.2593L60.6179 43.4412L55.366 40.829L59.3225 36.5149L56.6099 31.3209L62.3527 30.1564L63.2124 24.3642L68.5492 26.798L72.6513 22.6194L75.5401 27.7217L81.3226 26.7517L80.6589 32.5689L85.9108 35.1811L81.9552 39.498L84.666 44.6911Z" fill="#FBEB3B" stroke="#252525" stroke-width="1.5" stroke-linejoin="round"/>
<circle cx="70.7644" cy="38.1219" r="9.20783" fill="#FBEB3B" stroke="#252525" stroke-width="1.5"/>
<path d="M218.878 155.213L217.281 163.517L211.193 146.727L227.983 152.814L219.68 154.411C219.273 154.489 218.956 154.807 218.878 155.213Z" fill="white" stroke="#252525" stroke-width="1.5" stroke-linecap="round" stroke-linejoin="round"/>
<path d="M200.612 75.9091H207.535H214.459L213.134 84.9191H201.937L200.612 75.9091Z" fill="white"/>
<path d="M200.612 75.9091L201.937 84.9191H213.134L214.459 75.9091M200.612 75.9091L197.697 66.3691M200.612 75.9091H207.535M214.459 75.9091L217.407 66.3691M214.459 75.9091H207.535M207.535 75.9091V69.9466" stroke="#252525" stroke-width="1.5" stroke-linejoin="round"/>
<path d="M208.65 19.075L208.65 19.0751L208.656 19.0754C219.778 19.662 229.404 28.3859 229.404 40.1646C229.404 46.3189 226.788 53.9441 222.677 60.0332C218.545 66.1514 213.068 70.4898 207.458 70.4898C201.847 70.4898 196.368 66.1513 192.237 60.0332C188.125 53.9441 185.509 46.3189 185.509 40.1646C185.509 27.9641 195.838 19.041 207.458 19.041H207.462C207.862 19.041 208.257 19.0513 208.65 19.075Z" fill="white" stroke="#252525" stroke-width="1.5"/>
<path d="M200.592 20.1066C193.819 23.934 189.035 30.9837 189.035 39.598C189.035 45.9008 191.603 53.5113 195.609 59.6843C198.79 64.5862 202.965 68.7107 207.614 70.4845C207.561 70.4853 207.508 70.4857 207.455 70.4857C201.845 70.4857 196.367 66.148 192.236 60.0308C188.125 53.9426 185.509 46.3183 185.509 40.164C185.509 30.4498 192.058 22.8142 200.592 20.1066Z" fill="#71E76E" stroke="#252525" stroke-width="1.5"/>
<path d="M225.879 39.598C225.879 30.986 221.098 23.9379 214.328 20.1098C222.859 22.82 229.405 30.4528 229.405 40.1676C229.405 46.3218 226.79 53.9461 222.678 60.0344C218.547 66.1516 213.069 70.4892 207.46 70.4892C207.406 70.4892 207.352 70.4888 207.298 70.488C211.948 68.7136 216.123 64.5879 219.305 59.6847C223.311 53.5113 225.879 45.9009 225.879 39.598Z" fill="#71E76E" stroke="#252525" stroke-width="1.5"/>
<path d="M206.513 63.8816C206.699 64.9569 206.873 65.912 207.026 66.7236C196.032 52.4484 194.406 41.7012 196.174 34.0364C198 26.1185 203.495 21.2744 206.592 19.1005C205.053 22.9122 204.308 27.7001 204.049 32.7558C203.763 38.337 204.068 44.3114 204.599 49.7869C205.13 55.2648 205.888 60.2583 206.513 63.8816Z" fill="#71E76E" stroke="#252525" stroke-width="1.5"/>
<path d="M208.237 66.4693C208.365 65.7118 208.508 64.8394 208.659 63.8689C209.222 60.2461 209.906 55.2537 210.385 49.7773C210.863 44.3032 211.138 38.3322 210.881 32.7558C210.651 27.7511 209.99 23.0135 208.632 19.2278C211.444 21.4619 216.224 26.2697 217.832 34.0403C219.413 41.6826 217.958 52.3496 208.237 66.4693Z" fill="#71E76E" stroke="#252525" stroke-width="1.5"/>
<path d="M207.464 70.4909C202.455 70.4909 197.551 67.0342 193.611 61.9297H221.317C217.377 67.0342 212.473 70.4909 207.464 70.4909Z" fill="white" stroke="#252525" stroke-width="1.5"/>
<defs>
<linearGradient id="paint0_linear_2502_37820" x1="133.853" y1="192.32" x2="133.853" y2="245" gradientUnits="userSpaceOnUse">
<stop stop-color="#DBD4FF"/>
<stop offset="1" stop-color="#FFDED6"/>
</linearGradient>
</defs>
</svg>
